<?xml version="1.0" standalone="no"?>
<svg xmlns="http://www.w3.org/2000/svg" viewBox="0 0 93 70" width="93" height="70"><g fill="#d6af69" color="#d6af69" transform="translate(28.749 0) scale(0.35) "><svg width="100.0" height="100.0" x="0.0" y="0.0" viewBox="0 0 100 100"><path d="M14.257,65.774c4.191,9.445,11.735,16.402,20.631,20.071l13.931-34.924L14.257,65.774z M20.294,69.357  c-0.836-1.946,0.063-4.201,2.01-5.038c1.947-0.836,4.202,0.063,5.039,2.009c0.837,1.947-0.063,4.203-2.01,5.039  C23.386,72.204,21.13,71.305,20.294,69.357z M34.255,79.309c-1.946,0.837-4.202-0.062-5.038-2.01  c-0.836-1.946,0.063-4.201,2.01-5.037c1.946-0.837,4.202,0.062,5.038,2.009C37.102,76.217,36.202,78.473,34.255,79.309z   M37.428,67.26c-1.946,0.837-4.202-0.062-5.038-2.01c-0.836-1.946,0.063-4.202,2.009-5.038c1.947-0.837,4.203,0.063,5.039,2.01  S39.375,66.424,37.428,67.26z"></path><path d="M11.821,35.463l-5.004-1.996C2.675,44.157,2.508,56.389,7.269,67.775l4.933-2.12C8.033,55.646,8.187,44.882,11.821,35.463z"></path><path d="M33.217,12.967l-2.12-4.934C19.807,13.018,11.51,22.007,7.157,32.612l5.005,1.996  C16.007,25.274,23.305,17.359,33.217,12.967z"></path><path d="M64.254,12.223l1.997-5.005C55.561,3.077,43.328,2.91,31.943,7.67l2.12,4.934C44.071,8.435,54.835,8.588,64.254,12.223z"></path><path d="M35.744,86.188c8.98,3.46,19.241,3.605,28.782-0.363L49.673,51.263L35.744,86.188z M46.19,84.062  c-1.684,1.286-4.091,0.963-5.377-0.721c-1.285-1.684-0.963-4.091,0.721-5.377c1.683-1.284,4.091-0.962,5.375,0.721  C48.196,80.37,47.874,82.775,46.19,84.062z M46.339,72.75c-1.286-1.683-0.962-4.087,0.721-5.375c1.683-1.286,4.09-0.963,5.375,0.72  c1.287,1.685,0.965,4.092-0.719,5.377C50.032,74.757,47.625,74.436,46.339,72.75z M58.648,84.2c-1.684,1.285-4.09,0.964-5.375-0.721  c-1.286-1.683-0.964-4.09,0.721-5.376c1.683-1.284,4.089-0.963,5.374,0.721C60.655,80.508,60.333,82.915,58.648,84.2z"></path><path d="M56.498,43.198l34.561-14.852C86.868,18.9,79.323,11.943,70.427,8.273L56.498,43.198z M70.74,33.651  c-1.982,0.751-4.195-0.249-4.945-2.23c-0.748-1.981,0.251-4.195,2.232-4.944c1.981-0.75,4.194,0.25,4.944,2.232  C73.72,30.69,72.722,32.902,70.74,33.651z M85.238,25.142c0.748,1.981-0.251,4.194-2.231,4.943c-1.982,0.75-4.195-0.25-4.946-2.23  c-0.747-1.982,0.251-4.196,2.233-4.945C82.275,22.161,84.488,23.16,85.238,25.142z M74.444,21.755  c-1.982,0.75-4.193-0.25-4.943-2.231c-0.751-1.981,0.25-4.195,2.231-4.944s4.195,0.25,4.944,2.232  C77.426,18.793,76.425,21.006,74.444,21.755z"></path><path d="M92.75,27.619l4.934-2.12C92.7,14.208,83.711,5.912,73.105,1.559l-1.996,5.004C80.443,10.409,88.358,17.707,92.75,27.619z"></path><path d="M85.785,63.975c3.461-8.98,3.605-19.241-0.362-28.782L50.861,50.044L85.785,63.975z M76.314,42.001  c0.937-1.901,3.236-2.682,5.137-1.745c1.9,0.937,2.681,3.235,1.746,5.137c-0.938,1.9-3.237,2.681-5.137,1.744  C76.16,46.202,75.379,43.902,76.314,42.001z M81.212,52.2c1.9,0.936,2.681,3.233,1.744,5.136c-0.938,1.9-3.235,2.681-5.136,1.745  c-1.9-0.937-2.682-3.235-1.747-5.136C77.011,52.045,79.31,51.263,81.212,52.2z M70.229,45.673c1.902,0.935,2.683,3.235,1.747,5.137  c-0.938,1.899-3.236,2.68-5.135,1.743c-1.904-0.936-2.684-3.235-1.747-5.135C66.031,45.518,68.329,44.736,70.229,45.673z"></path><path d="M65.372,85.461c9.445-4.191,16.402-11.735,20.072-20.631L50.52,50.898L65.372,85.461z M74.408,63.249  c1.979-0.756,4.196,0.237,4.952,2.216c0.755,1.98-0.238,4.196-2.217,4.951c-1.98,0.756-4.196-0.238-4.95-2.217  C71.437,66.22,72.429,64.005,74.408,63.249z M62.501,59.579c1.979-0.756,4.196,0.238,4.95,2.219c0.756,1.979-0.237,4.194-2.216,4.95  c-1.979,0.753-4.195-0.238-4.95-2.218C59.529,62.551,60.522,60.334,62.501,59.579z M66.103,71.834  c1.979-0.754,4.196,0.237,4.952,2.219c0.757,1.979-0.237,4.194-2.216,4.95c-1.98,0.753-4.195-0.239-4.95-2.217  C63.133,74.806,64.125,72.591,66.103,71.834z"></path><path d="M35.062,87.896l-1.996,5.005c10.689,4.142,22.922,4.31,34.308-0.452l-2.12-4.934C55.245,91.684,44.48,91.53,35.062,87.896z"></path><path d="M33.944,14.659C24.498,18.85,17.542,26.394,13.872,35.29l34.924,13.93L33.944,14.659z M25.689,36.676  c-1.974,0.769-4.198-0.206-4.968-2.18c-0.77-1.974,0.206-4.198,2.18-4.967c1.974-0.77,4.197,0.206,4.967,2.179  C28.638,33.682,27.663,35.906,25.689,36.676z M37.624,40.255c-1.974,0.77-4.198-0.206-4.968-2.18  c-0.77-1.974,0.206-4.197,2.181-4.967c1.973-0.77,4.196,0.206,4.966,2.18C40.573,37.262,39.597,39.486,37.624,40.255z M33.93,28.027  c-1.974,0.77-4.198-0.206-4.968-2.18c-0.77-1.973,0.207-4.197,2.18-4.967c1.973-0.77,4.197,0.206,4.967,2.18  S35.903,27.257,33.93,28.027z"></path><path d="M66.099,87.152l2.12,4.934c11.29-4.983,19.587-13.973,23.94-24.578l-5.005-1.996C83.308,74.846,76.011,82.761,66.099,87.152  z"></path><path d="M87.113,34.465c4.168,10.008,4.016,20.773,0.382,30.191l5.005,1.997c4.141-10.69,4.309-22.923-0.452-34.308L87.113,34.465z"></path><path d="M13.53,36.145c-3.46,8.98-3.605,19.241,0.363,28.783l34.562-14.852L13.53,36.145z M22.148,58.113  c-0.992,1.872-3.312,2.587-5.185,1.596c-1.873-0.992-2.587-3.312-1.596-5.186c0.992-1.871,3.312-2.586,5.185-1.595  C22.424,53.919,23.139,56.241,22.148,58.113z M22.736,46.182c-0.991,1.873-3.312,2.587-5.185,1.596s-2.587-3.312-1.595-5.185  c0.991-1.873,3.312-2.586,5.184-1.596C23.012,41.989,23.727,44.31,22.736,46.182z M33.522,53.024  c-0.991,1.873-3.312,2.588-5.185,1.597c-1.873-0.992-2.587-3.312-1.595-5.185c0.991-1.873,3.312-2.586,5.184-1.595  C33.799,48.832,34.513,51.153,33.522,53.024z"></path><path d="M63.571,13.932c-8.979-3.46-19.24-3.605-28.781,0.363l14.852,34.562L63.571,13.932z M51.848,18.379  c0.9-1.917,3.184-2.742,5.103-1.842c1.917,0.9,2.741,3.184,1.841,5.102c-0.9,1.918-3.183,2.743-5.102,1.844  C51.772,22.582,50.947,20.298,51.848,18.379z M52.475,32.741c-0.9,1.918-3.185,2.743-5.103,1.842  c-1.917-0.901-2.742-3.185-1.842-5.102s3.184-2.742,5.102-1.842C52.549,28.54,53.374,30.824,52.475,32.741z M45.005,16.522  c1.917,0.9,2.742,3.185,1.842,5.102c-0.9,1.918-3.184,2.743-5.102,1.843c-1.917-0.9-2.743-3.185-1.842-5.103  C40.803,16.448,43.086,15.623,45.005,16.522z"></path><path d="M12.565,66.501l-4.934,2.12c4.984,11.289,13.974,19.587,24.579,23.94l1.996-5.007C24.873,83.71,16.957,76.413,12.565,66.501  z"></path></svg></g><line x1="29.798000000000005" y1="41" x2="62.69800000000001" y2="41" stroke="#800707" stroke-linecap="round"></line><path fill="#800707" fill-rule="nonzero" d="M15.65 7.01L15.65 7.01Q15.65 8.33 14.99 9.53Q14.33 10.73 13.21 11.63Q12.10 12.53 10.60 13.06Q9.10 13.58 7.42 13.58L7.42 13.58Q6.82 13.58 6.47 13.43Q6.12 13.27 5.69 12.82L5.69 12.82Q4.49 15.43 3.73 17.63Q2.98 19.82 2.54 21.89L2.54 21.89Q1.63 21.67 1.06 21.13Q0.48 20.59 0 19.78L0 19.78Q0.24 19.32 0.58 18.58Q0.91 17.83 1.39 16.74Q1.87 15.65 2.51 14.12Q3.14 12.60 4.01 10.56L4.01 10.56Q4.39 9.62 4.68 8.93Q4.97 8.23 5.18 7.62Q5.40 7.01 5.58 6.41Q5.76 5.81 5.95 5.09L5.95 5.09Q4.82 5.45 3.88 5.93Q2.93 6.41 2.30 6.94L2.30 6.94Q2.09 6.79 1.86 6.50Q1.63 6.22 1.44 5.87Q1.25 5.52 1.10 5.16Q0.96 4.80 0.94 4.51L0.94 4.51Q1.63 4.03 2.66 3.62Q3.70 3.22 4.87 2.92Q6.05 2.62 7.31 2.45Q8.57 2.28 9.72 2.28L9.72 2.28Q11.09 2.28 12.19 2.63Q13.30 2.98 14.06 3.60Q14.83 4.22 15.24 5.09Q15.65 5.95 15.65 7.01ZM11.38 4.13L11.38 4.13Q10.46 4.13 9.50 4.27L9.50 4.27L9.79 4.70Q9.55 5.02 9.19 5.64Q8.83 6.26 8.40 7.14Q7.97 8.02 7.45 9.10Q6.94 10.18 6.36 11.38L6.36 11.38Q8.23 11.38 9.77 11.03Q11.30 10.68 12.40 10.07Q13.49 9.46 14.10 8.64Q14.71 7.82 14.71 6.89L14.71 6.89Q14.71 5.64 13.87 4.88Q13.03 4.13 11.38 4.13ZM22.32 10.25L22.32 10.25Q22.56 10.25 22.88 10.33Q23.21 10.42 23.47 10.55Q23.74 10.68 23.92 10.82Q24.10 10.97 24.10 11.09L24.10 11.09Q23.62 12.10 23.21 13.12Q22.80 14.14 22.51 15.07Q22.22 16.01 22.07 16.82Q21.91 17.64 21.91 18.24L21.91 18.24Q21.91 18.91 22.06 19.36Q22.20 19.80 22.54 19.99L22.54 19.99Q22.25 20.18 21.79 20.30Q21.34 20.42 20.98 20.42L20.98 20.42Q19.68 20.42 19.68 18.65L19.68 18.65Q19.68 17.28 20.59 14.90L20.59 14.90Q20.11 16.01 19.49 16.98Q18.86 17.95 18.22 18.70Q17.57 19.44 16.91 19.91Q16.25 20.38 15.70 20.47L15.70 20.47Q14.81 20.42 14.26 19.62Q13.70 18.82 13.70 17.57L13.70 17.57Q13.70 16.22 14.28 14.74Q14.86 13.25 15.76 11.98Q16.66 10.70 17.71 9.85Q18.77 9.00 19.75 8.95L19.75 8.95Q19.99 9.02 20.29 9.24Q20.59 9.46 20.87 9.74Q21.14 10.03 21.34 10.33Q21.53 10.63 21.55 10.85L21.55 10.85Q20.59 10.99 19.57 11.78Q18.55 12.58 17.72 13.69Q16.90 14.81 16.37 16.08Q15.84 17.35 15.84 18.46L15.84 18.46Q15.84 18.91 16.18 19.03L16.18 19.03Q16.87 18.89 17.78 17.84Q18.70 16.80 19.99 14.62L19.99 14.62Q20.23 14.18 20.53 13.66Q20.83 13.13 21.14 12.55Q21.46 11.98 21.76 11.39Q22.06 10.80 22.32 10.25ZM33.60 10.39L33.60 10.39Q33.58 10.85 33.44 11.34Q33.31 11.83 33.12 12.23Q32.93 12.62 32.71 12.89Q32.50 13.15 32.30 13.15L32.30 13.15Q32.04 13.13 31.99 12.79L31.99 12.79Q31.99 12.72 32.05 12.56Q32.11 12.41 32.18 12.22Q32.26 12.02 32.32 11.83Q32.38 11.64 32.38 11.50L32.38 11.50Q32.38 11.16 32.22 10.93Q32.06 10.70 31.80 10.70L31.80 10.70Q30.84 10.70 30.34 11.90Q29.83 13.10 29.83 15.43L29.83 15.43Q29.83 15.67 29.86 15.72L29.86 15.72Q30.36 15.70 30.76 15.68Q31.15 15.67 31.54 15.67L31.54 15.67Q31.56 15.72 31.56 15.86L31.56 15.86Q31.56 16.08 31.46 16.18L31.46 16.18Q30.91 16.30 30.59 16.38Q30.26 16.46 30.10 16.54Q29.93 16.61 29.89 16.69Q29.86 16.78 29.86 16.92L29.86 16.92Q29.86 17.11 29.87 17.30Q29.88 17.50 29.88 17.78L29.88 17.78Q29.88 19.80 28.79 21.02Q27.70 22.25 25.75 22.44L25.75 22.44Q25.42 22.42 25.06 22.25Q24.70 22.08 24.37 21.82Q24.05 21.55 23.81 21.23Q23.57 20.90 23.47 20.57L23.47 20.57Q23.47 19.66 23.86 18.83Q24.24 18 24.90 17.36Q25.56 16.73 26.46 16.33Q27.36 15.94 28.42 15.86L28.42 15.86Q28.42 15.26 28.30 14.69Q28.18 14.11 28.04 13.57Q27.91 13.03 27.79 12.52Q27.67 12 27.67 11.50L27.67 11.50Q27.67 10.85 27.94 10.21Q28.20 9.58 28.63 9.04Q29.06 8.50 29.64 8.11Q30.22 7.73 30.84 7.58L30.84 7.58Q31.10 7.66 31.55 8.00Q31.99 8.35 32.42 8.78Q32.86 9.22 33.19 9.66Q33.53 10.10 33.60 10.39ZM25.68 21.34L25.68 21.34Q26.26 21.10 26.77 20.64Q27.29 20.18 27.67 19.61Q28.06 19.03 28.28 18.38Q28.51 17.74 28.51 17.11L28.51 17.11Q28.03 17.18 27.46 17.56Q26.88 17.93 26.38 18.44Q25.87 18.96 25.54 19.51Q25.20 20.06 25.20 20.47L25.20 20.47Q25.20 21 25.68 21.34ZM36.41 10.75L35.04 10.75Q34.92 10.61 34.82 10.14Q34.73 9.67 34.73 9.34L34.73 9.34Q35.35 9.38 35.93 9.42Q36.50 9.46 36.98 9.48L36.98 9.48Q37.34 8.76 37.76 8.05Q38.18 7.34 38.58 6.76Q38.98 6.17 39.32 5.76Q39.67 5.35 39.86 5.23L39.86 5.23Q40.10 5.23 40.48 5.32Q40.85 5.40 41.23 5.53Q41.62 5.66 41.93 5.81Q42.24 5.95 42.36 6.10L42.36 6.10Q41.64 7.01 41.12 7.79Q40.61 8.57 40.01 9.58L40.01 9.58Q40.49 9.58 40.98 9.55Q41.47 9.53 41.98 9.48L41.98 9.48Q42.10 9.60 42.17 9.78Q42.24 9.96 42.24 10.15L42.24 10.15Q41.06 10.58 39.38 10.63L39.38 10.63Q38.78 11.78 38.32 12.92Q37.85 14.06 37.52 15.12Q37.20 16.18 37.02 17.11Q36.84 18.05 36.84 18.79L36.84 18.79Q36.84 19.85 37.63 19.97L37.63 19.97Q38.35 19.87 39 19.61Q39.65 19.34 40.15 18.94L40.15 18.94Q40.30 19.15 40.32 19.30L40.32 19.30Q40.18 19.51 39.83 19.80Q39.48 20.09 39.07 20.36Q38.66 20.64 38.28 20.83Q37.90 21.02 37.70 21.05L37.70 21.05Q37.10 21.02 36.50 20.78Q35.90 20.54 35.41 20.18Q34.92 19.82 34.61 19.38Q34.30 18.94 34.30 18.50L34.30 18.50Q34.30 17.93 34.45 17.05Q34.61 16.18 34.90 15.14Q35.18 14.11 35.57 12.98Q35.95 11.86 36.41 10.75L36.41 10.75ZM50.35 10.25L50.35 10.25Q50.59 10.25 50.92 10.33Q51.24 10.42 51.50 10.55Q51.77 10.68 51.95 10.82Q52.13 10.97 52.13 11.09L52.13 11.09Q51.65 12.10 51.24 13.12Q50.83 14.14 50.54 15.07Q50.26 16.01 50.10 16.82Q49.94 17.64 49.94 18.24L49.94 18.24Q49.94 18.91 50.09 19.36Q50.23 19.80 50.57 19.99L50.57 19.99Q50.28 20.18 49.82 20.30Q49.37 20.42 49.01 20.42L49.01 20.42Q47.71 20.42 47.71 18.65L47.71 18.65Q47.71 17.28 48.62 14.90L48.62 14.90Q48.14 16.01 47.52 16.98Q46.90 17.95 46.25 18.70Q45.60 19.44 44.94 19.91Q44.28 20.38 43.73 20.47L43.73 20.47Q42.84 20.42 42.29 19.62Q41.74 18.82 41.74 17.57L41.74 17.57Q41.74 16.22 42.31 14.74Q42.89 13.25 43.79 11.98Q44.69 10.70 45.74 9.85Q46.80 9.00 47.78 8.95L47.78 8.95Q48.02 9.02 48.32 9.24Q48.62 9.46 48.90 9.74Q49.18 10.03 49.37 10.33Q49.56 10.63 49.58 10.85L49.58 10.85Q48.62 10.99 47.60 11.78Q46.58 12.58 45.76 13.69Q44.93 14.81 44.40 16.08Q43.87 17.35 43.87 18.46L43.87 18.46Q43.87 18.91 44.21 19.03L44.21 19.03Q44.90 18.89 45.82 17.84Q46.73 16.80 48.02 14.62L48.02 14.62Q48.26 14.18 48.56 13.66Q48.86 13.13 49.18 12.55Q49.49 11.98 49.79 11.39Q50.09 10.80 50.35 10.25ZM58.49 8.74L58.49 8.74Q58.97 8.74 59.59 9.02Q60.22 9.31 60.70 9.77L60.70 9.77Q60.58 8.81 60.40 7.96Q60.22 7.10 59.87 6.19Q59.52 5.28 58.94 4.20Q58.37 3.12 57.50 1.73L57.50 1.73Q57.58 1.51 57.83 1.22Q58.08 0.94 58.40 0.68Q58.73 0.43 59.08 0.24Q59.42 0.05 59.74 0L59.74 0Q60.41 0.74 61.01 1.86Q61.61 2.98 62.06 4.26Q62.52 5.54 62.77 6.91Q63.02 8.28 63.02 9.53L63.02 9.53Q63.02 10.78 62.75 12.10Q62.47 13.42 61.98 14.68Q61.49 15.94 60.84 17.06Q60.19 18.19 59.44 19.08Q58.68 19.97 57.86 20.53Q57.05 21.10 56.23 21.24L56.23 21.24Q54.58 21.05 53.70 20.17Q52.82 19.30 52.82 17.76L52.82 17.76Q52.82 16.94 53.08 15.98Q53.33 15.02 53.75 14.08Q54.17 13.13 54.73 12.23Q55.30 11.33 55.93 10.61Q56.57 9.89 57.22 9.38Q57.86 8.88 58.49 8.74ZM56.04 20.28L56.04 20.28Q56.88 19.99 57.72 19.01Q58.56 18.02 59.23 16.69Q59.90 15.36 60.32 13.84Q60.74 12.31 60.74 10.90L60.74 10.90Q60.74 10.49 60.74 10.39Q60.74 10.30 60.72 10.20L60.72 10.20Q60.14 10.44 59.50 11.02Q58.85 11.59 58.20 12.35Q57.55 13.10 56.98 13.99Q56.40 14.88 55.94 15.77Q55.49 16.66 55.22 17.47Q54.96 18.29 54.96 18.91L54.96 18.91Q54.96 20.11 56.04 20.28ZM66.48 20.78L66.48 20.78Q65.11 20.64 64.30 19.58Q63.48 18.53 63.48 16.90L63.48 16.90Q63.48 15.94 63.77 14.90Q64.06 13.87 64.58 12.90Q65.11 11.93 65.83 11.06Q66.55 10.20 67.39 9.58L67.39 9.58Q68.71 8.59 69.86 8.59L69.86 8.59Q70.63 9.00 71.38 10.30L71.38 10.30Q71.50 10.30 71.59 10.28Q71.69 10.27 71.81 10.27L71.81 10.27Q73.08 10.27 73.08 12.53L73.08 12.53Q73.08 14.04 72.59 15.40Q72.10 16.75 71.22 17.86Q70.34 18.96 69.13 19.72Q67.92 20.47 66.48 20.78ZM67.70 13.22L67.70 13.22Q67.30 13.78 66.94 14.42Q66.58 15.07 66.31 15.73Q66.05 16.39 65.90 17.00Q65.76 17.62 65.76 18.10L65.76 18.10Q65.76 18.67 65.95 19.20Q66.14 19.73 66.38 19.80L66.38 19.80Q67.46 19.56 68.36 18.90Q69.26 18.24 69.92 17.26Q70.58 16.27 70.96 15.02Q71.33 13.78 71.33 12.36L71.33 12.36Q71.33 11.74 71.26 11.38Q71.18 11.02 71.02 10.75L71.02 10.75Q69.96 11.06 69.13 11.76Q68.30 12.46 67.70 13.22ZM73.66 19.46L73.66 19.46Q73.78 18.77 74.08 17.63Q74.38 16.49 74.78 15.20Q75.19 13.92 75.65 12.62Q76.10 11.33 76.54 10.30L76.54 10.30Q76.85 9.55 77.09 9.13Q77.33 8.71 77.62 8.42L77.62 8.42Q77.95 8.47 78.31 8.59Q78.67 8.71 79.01 8.88Q79.34 9.05 79.61 9.23Q79.87 9.41 80.02 9.58L80.02 9.58Q79.37 10.34 78.88 11.33Q78.38 12.31 77.88 13.85L77.88 13.85Q79.18 12.70 80.17 11.64Q81.17 10.58 82.03 9.29L82.03 9.29Q82.18 9.17 82.54 9.17L82.54 9.17Q82.87 9.17 83.18 9.28Q83.50 9.38 83.62 9.58L83.62 9.58Q83.18 10.73 83.18 11.86L83.18 11.86Q83.18 12.91 83.50 13.44L83.50 13.44Q83.47 13.58 83.17 13.99Q82.87 14.40 82.51 14.76L82.51 14.76Q81.86 14.42 81.36 13.84Q80.86 13.25 80.62 12.55L80.62 12.55Q79.49 13.34 78.70 14.10Q77.90 14.86 77.34 15.78Q76.78 16.70 76.38 17.90Q75.98 19.10 75.62 20.76L75.62 20.76Q75.41 20.74 75.11 20.60Q74.81 20.47 74.51 20.28Q74.21 20.09 73.97 19.87Q73.73 19.66 73.66 19.46ZM92.50 10.01L92.50 10.01Q92.40 11.50 91.97 12.56Q91.54 13.63 90.73 14.44Q89.93 15.24 88.78 15.89Q87.62 16.54 86.09 17.14L86.09 17.14Q86.09 17.28 86.08 17.44Q86.06 17.59 86.06 17.76L86.06 17.76Q86.06 18.07 86.11 18.41Q86.16 18.74 86.28 19.03Q86.40 19.32 86.62 19.50Q86.83 19.68 87.17 19.68L87.17 19.68Q87.82 19.68 88.44 19.39Q89.06 19.10 89.63 18.68Q90.19 18.26 90.68 17.77Q91.18 17.28 91.56 16.87L91.56 16.87Q91.80 17.09 91.97 17.28L91.97 17.28Q90.89 18.72 89.60 19.67Q88.32 20.62 87.17 20.88L87.17 20.88Q85.51 20.69 84.59 19.67Q83.66 18.65 83.66 17.21L83.66 17.21Q83.66 16.22 83.94 15.20Q84.22 14.18 84.71 13.24Q85.20 12.29 85.86 11.45Q86.52 10.61 87.28 9.98Q88.03 9.36 88.84 9.00Q89.64 8.64 90.43 8.64L90.43 8.64Q91.54 8.78 92.50 10.01ZM90.84 10.80L90.84 10.80Q90.19 10.90 89.50 11.33Q88.80 11.76 88.19 12.48Q87.58 13.20 87.07 14.16Q86.57 15.12 86.28 16.22L86.28 16.22Q88.20 15.26 89.47 13.86Q90.74 12.46 90.84 10.80Z" transform="translate(0, 47)"></path></svg>